name C:\Users\tom_v\MusculoskeletalSpecialization\ResultsSprinting\Case_4\motion.mot
datacolumns 32
datarows 7
range 0.00000000 0.03279050
endheader 
time	pelvis_tilt	pelvis_list	pelvis_rotation	pelvis_tx	pelvis_ty	pelvis_tz	hip_flexion_r	hip_adduction_r	hip_rotation_r	knee_angle_r	ankle_angle_r	subtalar_angle_r	mtp_angle_r	hip_flexion_l	hip_adduction_l	hip_rotation_l	knee_angle_l	ankle_angle_l	subtalar_angle_l	mtp_angle_l	lumbar_extension	lumbar_bending	lumbar_rotation	arm_flex_r	arm_add_r	arm_rot_r	elbow_flex_r	arm_flex_l	arm_add_l	arm_rot_l	elbow_flex_l	
          0.00000000	        -10.95824525	         -1.40562729	          0.73537071	          0.00000000	          0.89157347	         -0.00231707	         41.60404185	          4.37529382	          2.78745995	        -36.73472696	          4.08261863	         -4.22587653	          0.03772453	          2.42028391	         -2.52052933	         -0.15450752	        -49.77958751	        -10.31842986	         13.95234535	         12.05395391	         -1.61536846	          3.66020123	         -2.31073391	        -16.50285295	        -23.25304148	          1.17484041	         93.32053191	         25.14012894	         -0.50996002	         18.20488205	          2.83800599	
          0.00546508	        -10.90883836	         -1.30334844	          0.82257863	          0.01873572	          0.88888408	         -0.00201677	         40.91138645	          4.57440816	          3.28652906	        -37.48684674	          5.99544822	         -4.45117733	          0.07082753	          3.34000043	         -2.50200478	         -0.34216166	        -51.43955129	         -9.37531638	         13.84207003	         11.23871101	         -1.50000133	          3.61203525	         -2.21420773	        -14.84806214	        -22.97202410	          2.21832682	         90.04184119	         24.41632131	         -0.85327730	         18.28344417	          4.21095722	
          0.01093017	        -10.86118558	         -1.20419144	          0.90868898	          0.03744688	          0.88607329	         -0.00171452	         40.13032488	          4.77353106	          3.79165066	        -38.70264357	          8.45551405	         -4.61711162	          0.50551888	          4.34928368	         -2.47800903	         -0.53953308	        -53.14633473	         -8.39982463	         13.68324330	         10.47590663	         -1.38339741	          3.56493339	         -2.10861592	        -13.08073692	        -22.65241408	          3.32974170	         86.52061200	         23.57116847	         -1.28931369	         18.37782625	          5.96093437	
          0.01639525	        -10.81823977	         -1.10629685	          0.98980502	          0.05607259	          0.88328090	         -0.00141081	         39.20700275	          4.95506493	          4.26616579	        -39.79686608	         11.00090440	         -4.71992106	          1.26313573	          5.44915486	         -2.44345424	         -0.74195170	        -54.87939864	         -7.39640443	         13.47558975	          9.76210927	         -1.27492412	          3.51452757	         -1.99521019	        -11.17919569	        -22.28270370	          4.51744959	         82.71851047	         22.60364705	         -1.82526318	         18.48911046	          8.11123523	
          0.02186033	        -10.78311700	         -1.01305528	          1.05520873	          0.07450443	          0.88064224	         -0.00108909	         38.21510275	          5.12884748	          4.69025448	        -40.71362552	         13.36092221	         -4.85029938	          2.09510416	          6.64934792	         -2.39648117	         -0.93842130	        -56.63018308	         -6.38064488	         13.22042062	          9.09507416	         -1.19046836	          3.46253917	         -1.87169900	         -9.11163034	        -21.85128832	          5.79400273	         78.59971480	         21.52571705	         -2.46676913	         18.61464822	         10.66765925	
          0.02732541	        -10.75638941	         -0.92441281	          1.10375466	          0.09268679	          0.87824546	         -0.00074555	         37.23284259	          5.29942529	          5.07255768	        -41.57711333	         15.50818830	         -4.97862074	          2.93910193	          7.94828237	         -2.33550437	         -1.12422123	        -58.37907973	         -5.35787191	         12.91912000	          8.47092524	         -1.13867601	          3.40764744	         -1.74205485	         -6.86946904	        -21.34346199	          7.15679904	         74.14978700	         20.34861196	         -3.21624012	         18.76006703	         13.61934276	
          0.03279050	        -10.73757641	         -0.83415348	          1.13636273	          0.11062381	          0.87614508	         -0.00038734	         36.28204674	          5.45489780	          5.40711964	        -42.40720371	         17.30403794	         -5.10336091	          3.84385022	          9.33273440	         -2.25378555	         -1.30157768	        -60.09580176	         -4.32718918	         12.57580712	          7.88722395	         -1.11934072	          3.34285264	         -1.60850843	         -4.46704539	        -20.74356312	          8.58904281	         69.37186144	         19.07835370	         -4.07242571	         18.92577977	         16.94675358	
